<svg xmlns="http://www.w3.org/2000/svg" width="82" height="22" viewBox="0 0 82 22">
   <g>
      <g>
         <g>
            <path fill="#fff"
               d="M6.896 13.61c-1.87 0-3.239-1.21-3.239-3.013s1.369-3.012 3.239-3.012c1.87 0 3.216 1.21 3.216 3.012 0 1.803-1.346 3.013-3.216 3.013zm3.353-8.764v1.575c-.935-1.187-2.35-1.757-4.06-1.757-3.399 0-6.136 2.35-6.136 5.933 0 3.583 2.737 5.934 6.136 5.934 1.596 0 2.942-.502 3.877-1.529v.525c0 2.214-1.094 3.355-3.603 3.355-1.574 0-3.285-.548-4.334-1.392L.715 20.046c1.437 1.118 3.695 1.688 6.021 1.688 4.425 0 6.889-2.099 6.889-6.663V4.846z" />
         </g>
         <g>
            <path fill="#fff"
               d="M22.77 14.386c-1.78 0-3.148-1.278-3.148-3.4 0-2.123 1.369-3.401 3.148-3.401 1.779 0 3.124 1.278 3.124 3.4 0 2.123-1.345 3.4-3.124 3.4zm0 2.921c3.9 0 6.729-2.625 6.729-6.322s-2.83-6.321-6.73-6.321c-3.9 0-6.751 2.624-6.751 6.321 0 3.697 2.851 6.322 6.752 6.322z" />
         </g>
         <g>
            <path fill="#fff"
               d="M38.507 14.386c-1.78 0-3.125-1.278-3.125-3.4 0-2.123 1.346-3.401 3.125-3.401s3.125 1.278 3.125 3.4c0 2.123-1.346 3.4-3.125 3.4zm6.729-3.4c0-3.858-2.67-6.322-6.113-6.322-1.529 0-2.783.479-3.695 1.483V.19h-3.559v16.934h3.399V15.71c.89 1.073 2.213 1.598 3.855 1.598 3.444 0 6.113-2.465 6.113-6.322z" />
         </g>
         <g>
            <path fill="#fff"
               d="M46.58 15.07c0-1.323.98-2.19 2.212-2.19 1.232 0 2.213.867 2.213 2.19 0 1.301-.98 2.237-2.213 2.237-1.231 0-2.212-.936-2.212-2.236z" />
         </g>
         <g>
            <path fill="#fff"
               d="M60.06 14.386c-1.78 0-3.125-1.278-3.125-3.4 0-2.123 1.345-3.401 3.125-3.401 1.779 0 3.124 1.278 3.124 3.4 0 2.123-1.345 3.4-3.124 3.4zm6.728-3.4c0-3.858-2.669-6.322-6.113-6.322-1.642 0-2.965.524-3.855 1.597V4.846h-3.398v16.706h3.558v-5.728c.913 1.004 2.167 1.483 3.695 1.483 3.444 0 6.113-2.465 6.113-6.322z" />
         </g>
         <g>
            <path fill="#fff"
               d="M74.816 7.357c1.596 0 2.76 1.004 3.01 2.556h-6.044c.25-1.575 1.414-2.556 3.034-2.556zm6.295 4.633c.023-.297.068-.685.068-.959 0-3.948-2.783-6.367-6.386-6.367-3.74 0-6.546 2.647-6.546 6.321 0 3.652 2.76 6.322 7.002 6.322 2.213 0 3.923-.684 5.064-1.985l-1.893-2.054c-.844.798-1.78 1.186-3.08 1.186-1.87 0-3.17-.935-3.512-2.464h9.283z" />
         </g>
      </g>
   </g>
</svg>